# Blender v2.92.0 OBJ File: 'Road1.blend'
# www.blender.org
mtllib CrossRoad1.mtl
o Plane.001
v 3.000000 0.207375 -5.000000
v -3.000000 0.207375 -5.000000
v 3.000000 0.000000 -5.000000
v -3.000000 0.000000 -5.000000
v -5.000000 0.207375 -5.000000
v 5.000000 0.207375 -5.000000
v -5.000000 0.007375 -5.000000
v 5.000000 0.007375 -5.000000
v 3.000000 0.207375 -3.000259
v -3.000000 0.000000 -3.000258
v 3.000000 0.000000 -3.000259
v -5.000000 0.207375 -3.000259
v 5.000000 0.207375 -3.000259
v -3.000000 0.207375 -3.000258
v 5.000000 0.007375 -3.000259
v -5.000000 0.007375 -3.000259
v 3.000001 0.207375 5.000000
v -2.999999 0.207375 5.000000
v 3.000001 0.000000 5.000000
v -2.999999 0.000000 5.000000
v -4.999999 0.207375 5.000001
v 5.000001 0.207375 4.999999
v -4.999999 0.007375 5.000001
v 5.000001 0.007375 4.999999
v 3.000000 0.207375 3.000259
v -2.999999 0.000000 3.000259
v 3.000000 0.000000 3.000259
v -5.000000 0.207375 3.000260
v 5.000000 0.207375 3.000258
v -2.999999 0.207375 3.000259
v 5.000000 0.007375 3.000258
v -5.000000 0.007375 3.000260
vt 0.333333 0.666667
vt 0.666667 0.666667
vt 0.666667 1.000000
vt 0.333333 1.000000
vt 0.833333 0.666667
vt 1.000000 0.666667
vt 1.000000 1.000000
vt 0.833333 1.000000
vt 0.333333 1.000000
vt 0.333333 0.666667
vt 0.000000 0.666667
vt 0.166667 0.666667
vt 0.166667 1.000000
vt 0.000000 1.000000
vt 0.000000 1.000000
vt 0.000000 0.666667
vt 1.000000 0.666667
vt 1.000000 1.000000
vt 0.666667 0.666667
vt 0.666667 1.000000
vt 0.333333 0.666667
vt 0.333333 1.000000
vt 0.666667 1.000000
vt 0.666667 0.666667
vt 0.833333 0.666667
vt 0.833333 1.000000
vt 1.000000 1.000000
vt 1.000000 0.666667
vt 0.333333 0.666667
vt 0.333333 1.000000
vt 0.000000 0.666667
vt 0.000000 1.000000
vt 0.166667 1.000000
vt 0.166667 0.666667
vt 0.000000 0.666667
vt 0.000000 1.000000
vt 1.000000 1.000000
vt 1.000000 0.666667
vt 0.666667 1.000000
vt 0.666667 0.666667
vn 0.0000 1.0000 0.0000
vn 1.0000 0.0000 0.0000
vn -1.0000 0.0000 0.0000
vn -0.0000 0.0000 1.0000
vn -0.0000 0.0000 -1.0000
vn 0.0037 1.0000 -0.0000
vn -0.0037 1.0000 0.0000
usemtl None
s off
f 10/1/1 11/2/1 3/3/1 4/4/1
f 9/5/1 13/6/1 6/7/1 1/8/1
f 10/1/2 4/4/2 2/9/2 14/10/2
f 12/11/1 14/12/1 2/13/1 5/14/1
f 12/11/3 5/14/3 7/15/3 16/16/3
f 6/7/2 13/6/2 15/17/2 8/18/2
f 3/3/3 11/2/3 9/19/3 1/20/3
f 26/21/1 20/22/1 19/23/1 27/24/1
f 25/25/1 17/26/1 22/27/1 29/28/1
f 26/21/2 30/29/2 18/30/2 20/22/2
f 28/31/1 21/32/1 18/33/1 30/34/1
f 28/31/3 32/35/3 23/36/3 21/32/3
f 22/27/2 24/37/2 31/38/2 29/28/2
f 19/23/3 17/39/3 25/40/3 27/24/3
f 10/1/1 26/21/1 27/24/1 11/2/1
f 14/10/4 12/11/4 16/16/4 10/1/4
f 13/6/4 9/5/4 11/2/4 15/17/4
f 29/28/5 31/38/5 27/24/5 25/25/5
f 30/29/5 26/21/5 32/35/5 28/31/5
f 26/21/6 10/1/6 16/16/6 32/35/6
f 27/24/7 31/38/7 15/17/7 11/2/7
f 17/39/4 19/23/4 24/37/4 22/27/4
f 18/30/4 21/32/4 23/36/4 20/22/4
f 1/20/5 6/7/5 8/18/5 3/3/5
f 2/9/5 4/4/5 7/15/5 5/14/5
