# Blender v2.92.0 OBJ File: ''
# www.blender.org
mtllib Road1-2.mtl
v -4.999999 0.207375 -3.178931
v 5.000000 0.207375 -3.178930
v 4.999999 0.207375 3.178931
v -5.000000 0.207375 3.178930
v 5.000000 0.000000 3.000000
v 5.000000 0.000000 -2.999999
v -5.000000 0.000000 -3.000000
v -5.000000 0.000000 2.999999
v -5.000000 0.207375 5.000000
v 5.000000 0.207375 5.000000
v 5.000000 0.207375 -2.999999
v 5.000000 0.207375 -5.000000
v -5.000000 0.207375 -5.000000
v -5.000000 0.207375 2.999999
v 5.000000 0.207375 3.000000
v -5.000000 0.207375 -3.000000
v 5.000000 0.388897 -3.178930
v -4.999999 0.388897 -3.178931
v 4.999999 0.388897 3.178931
v 5.000000 0.388897 3.000000
v -5.000000 0.388897 -3.000000
v -5.000000 0.388897 2.999999
v 5.000000 0.388897 -2.999999
v -5.000000 0.388897 3.178930
v -5.000000 0.007375 5.000000
v 5.000000 0.007375 5.000000
v 5.000000 0.007375 -5.000000
v -5.000000 0.007375 -5.000000
vt 0.666667 0.000000
vt 0.666667 1.000000
vt 0.666667 1.000000
vt 0.666667 0.000000
vt 0.333333 1.000000
vt 0.333333 0.000000
vt 1.000000 0.000000
vt 0.833333 1.000000
vt 0.833333 0.000000
vt 0.333333 0.000000
vt 0.833333 0.000000
vt 0.666667 0.000000
vt 0.333333 0.000000
vt 0.166667 1.000000
vt 0.166667 0.000000
vt 0.333333 1.000000
vt 0.166667 0.000000
vt 0.000000 1.000000
vt 0.000000 0.000000
vt 0.666667 1.000000
vt 0.000000 0.000000
vt 0.166667 1.000000
vt 1.000000 1.000000
vt 1.000000 1.000000
vt 0.833333 1.000000
vt 0.333333 1.000000
vt 0.000000 1.000000
vt 1.000000 0.000000
vn -0.0000 0.0000 1.0000
vn 0.0000 1.0000 0.0000
vn 0.0000 0.0000 -1.0000
usemtl None
s off
f 11/1/1 21/2/1 16/3/1
f 6/4/2 8/5/2 5/6/2
f 12/7/2 1/8/2 2/9/2
f 8/5/3 15/10/3 5/6/3
f 17/11/2 21/2/2 23/12/2
f 20/13/2 24/14/2 19/15/2
f 14/16/3 20/13/3 15/10/3
f 3/17/2 9/18/2 10/19/2
f 6/4/1 16/3/1 7/20/1
f 1/8/3 17/11/3 2/9/3
f 9/18/1 26/21/1 10/19/1
f 3/17/1 24/14/1 4/22/1
f 12/7/3 28/23/3 13/24/3
f 11/1/1 23/12/1 21/2/1
f 6/4/2 7/20/2 8/5/2
f 12/7/2 13/24/2 1/8/2
f 8/5/3 14/16/3 15/10/3
f 17/11/2 18/25/2 21/2/2
f 20/13/2 22/26/2 24/14/2
f 14/16/3 22/26/3 20/13/3
f 3/17/2 4/22/2 9/18/2
f 6/4/1 11/1/1 16/3/1
f 1/8/3 18/25/3 17/11/3
f 9/18/1 25/27/1 26/21/1
f 3/17/1 19/15/1 24/14/1
f 12/7/3 27/28/3 28/23/3
