# Blender v2.92.0 OBJ File: 'Road1.blend'
# www.blender.org
mtllib Tupik.mtl
o Plane.001
v 5.000000 0.207375 2.999999
v 5.000000 0.207375 -3.000000
v 5.000000 0.000000 2.999999
v 5.000000 0.000000 -3.000000
v 5.000000 0.207375 -5.000000
v 5.000000 0.207375 5.000000
v 5.000000 0.007375 -5.000000
v 5.000000 0.007375 5.000000
v 3.000259 0.207375 3.000000
v 3.000258 0.000000 -3.000000
v 3.000259 0.000000 3.000000
v 3.000258 0.207375 -5.000000
v 3.000259 0.207375 5.000000
v 3.000258 0.207375 -3.000000
v 3.000259 0.007375 5.000000
v 3.000258 0.007375 -5.000000
v -5.000000 0.207375 3.000001
v -5.000000 0.207375 -2.999998
v -5.000000 0.000000 3.000001
v -5.000000 0.000000 -2.999998
v -5.000001 0.207375 -4.999999
v -4.999999 0.207375 5.000001
v -5.000001 0.007375 -4.999999
v -4.999999 0.007375 5.000001
v -3.000258 0.207375 3.000000
v -3.000259 0.000000 -2.999999
v -3.000258 0.000000 3.000000
v -3.000260 0.207375 -5.000000
v -3.000257 0.207375 5.000000
v -3.000259 0.207375 -2.999999
v -3.000257 0.007375 5.000000
v -3.000260 0.007375 -5.000000
vt 0.833333 0.666667
vt 1.000000 0.666667
vt 1.000000 1.000000
vt 0.833333 1.000000
vt 0.333333 0.666667
vt 0.333333 1.000000
vt 0.333333 1.000000
vt 0.333333 0.666667
vt 0.000000 0.666667
vt 0.166667 0.666667
vt 0.166667 1.000000
vt 0.000000 1.000000
vt 0.000000 1.000000
vt 0.000000 0.666667
vt 1.000000 0.666667
vt 1.000000 1.000000
vt 0.666667 1.000000
vt 0.666667 0.666667
vt 0.666667 0.666667
vt 0.666667 1.000000
vt 0.833333 0.666667
vt 0.833333 1.000000
vt 1.000000 1.000000
vt 1.000000 0.666667
vt 0.333333 0.666667
vt 0.333333 0.666667
vt 0.333333 1.000000
vt 0.333333 1.000000
vt 0.000000 0.666667
vt 0.000000 1.000000
vt 0.166667 1.000000
vt 0.166667 0.666667
vt 0.000000 0.666667
vt 0.000000 1.000000
vt 1.000000 1.000000
vt 1.000000 0.666667
vt 0.666667 1.000000
vt 0.666667 1.000000
vt 0.666667 0.666667
vt 0.666667 0.666667
vt 0.000000 0.000000
vt 0.000000 0.000000
vt 0.000000 0.000000
vt 0.000000 0.000000
vt 0.000000 0.000000
vt 0.000000 0.000000
vt 0.000000 0.000000
vt 0.000000 0.000000
vt 0.000000 0.000000
vt 0.000000 0.000000
vt 0.000000 0.000000
vt 0.000000 0.000000
vt 0.000000 0.000000
vt 0.000000 0.000000
vt 0.000000 0.000000
vt 0.000000 0.000000
vt 0.000000 0.000000
vt 0.000000 0.000000
vt 0.000000 0.000000
vt 0.000000 0.000000
vn 0.0000 1.0000 0.0000
vn 0.0000 0.0000 1.0000
vn -0.0000 0.0000 -1.0000
vn -1.0000 0.0000 -0.0000
vn 1.0000 0.0000 -0.0000
vn 0.0000 1.0000 0.0037
vn -0.0000 1.0000 -0.0037
usemtl None
s off
f 9/1/1 13/2/1 6/3/1 1/4/1
f 10/5/2 4/6/2 2/7/2 14/8/2
f 12/9/1 14/10/1 2/11/1 5/12/1
f 12/9/3 5/12/3 7/13/3 16/14/3
f 6/3/2 13/2/2 15/15/2 8/16/2
f 3/17/3 11/18/3 9/19/3 1/20/3
f 25/21/1 17/22/1 22/23/1 29/24/1
f 26/25/2 30/26/2 18/27/2 20/28/2
f 28/29/1 21/30/1 18/31/1 30/32/1
f 28/29/3 32/33/3 23/34/3 21/30/3
f 22/23/2 24/35/2 31/36/2 29/24/2
f 19/37/3 17/38/3 25/39/3 27/40/3
f 10/5/1 26/25/1 27/40/1 11/18/1
f 14/8/4 12/9/4 16/14/4 10/5/4
f 13/2/4 9/1/4 11/18/4 15/15/4
f 29/24/5 31/36/5 27/40/5 25/21/5
f 30/26/5 26/25/5 32/33/5 28/29/5
f 26/25/6 10/5/6 16/14/6 32/33/6
f 27/40/7 31/36/7 15/15/7 11/18/7
f 17/38/4 19/37/4 24/35/4 22/23/4
f 18/27/4 21/30/4 23/34/4 20/28/4
f 1/20/5 6/3/5 8/16/5 3/17/5
f 2/7/5 4/6/5 7/13/5 5/12/5
f 27/41/5 26/42/5 30/43/5 25/44/5
f 19/45/4 17/46/4 18/47/4 20/48/4
f 25/44/1 30/43/1 18/47/1 17/46/1
f 12/49/2 28/50/2 32/51/2 16/52/2
f 10/53/2 14/54/2 30/43/2 26/42/2
f 14/54/1 12/49/1 28/50/1 30/43/1
f 10/53/4 11/55/4 9/56/4 14/54/4
f 14/54/1 9/56/1 1/57/1 2/58/1
f 1/57/5 3/59/5 4/60/5 2/58/5
